<?xml version="1.0" encoding="iso-8859-1"?>
<!-- Uploaded to: SVG Repo, www.svgrepo.com, Generator: SVG Repo Mixer Tools -->
<svg fill="#000000" height="48px" width="48px" version="1.1" id="Layer_1" xmlns="http://www.w3.org/2000/svg" xmlns:xlink="http://www.w3.org/1999/xlink"
	 viewBox="0 0 511.997 511.997" xml:space="preserve">
<g>
	<g>
		<g>
			<path d="M390.971,200.525c-3.898-3.051-38.998-29.568-70.632-21.088c-19.539,5.236-33.431,23.678-34.428,43.035
				c-9.671,1.92-23.615,6.388-36.865,16.754v-46.027c8.833-2.611,16.486-8.173,21.668-15.781
				c12.78,2.421,26.176-1.502,35.765-11.089c9.589-9.589,13.513-22.984,11.089-35.765c10.752-7.325,17.448-19.571,17.448-33.131
				c0-13.56-6.696-25.807-17.448-33.131c2.424-12.781-1.5-26.176-11.089-35.765c-9.589-9.589-22.98-13.512-35.765-11.089
				C263.39,6.697,251.143,0,237.583,0s-25.807,6.697-33.131,17.447c-12.781-2.422-26.177,1.502-35.765,11.089
				c-9.589,9.589-13.513,22.984-11.089,35.765c-10.752,7.324-17.448,19.57-17.448,33.131s6.696,25.806,17.448,33.131
				c-2.424,12.781,1.5,26.175,11.089,35.765c9.59,9.589,22.983,13.511,35.765,11.089c5.182,7.608,12.835,13.169,21.668,15.781
				v95.279h-94.567c-5.744,0-10.602,4.252-11.362,9.945c-2.432,18.221-3.598,35.597-3.563,53.12c0,0,0,0,0,0.001v0.001
				c0.103,55.445,12.976,105.958,26.87,152.284c1.455,4.849,5.917,8.169,10.98,8.169h166.209c5.063,0,9.525-3.321,10.98-8.169
				c13.895-46.326,26.768-96.839,26.87-152.284v-0.001c0-0.001,0-0.001,0-0.001v-0.001c0.036-17.523-1.129-34.899-3.563-53.12
				c-0.761-5.693-5.618-9.945-11.362-9.945h-94.567v-15.61c12.959-20.02,31.726-26.182,41.995-28.079
				c8.078,14.592,24.521,24.113,41.472,24.113c3.804,0,7.635-0.479,11.401-1.489c31.635-8.477,48.774-48.987,50.625-53.579
				C396.445,209.099,394.991,203.671,390.971,200.525z M325.266,438.639H312.09c-6.331,0-11.463,5.132-11.463,11.463
				c0,6.331,5.132,11.463,11.463,11.463h7.671c-2.419,9.324-4.987,18.498-7.63,27.51H163.034c-2.642-9.012-5.211-18.187-7.63-27.51
				h7.671c6.331,0,11.463-5.132,11.463-11.463c0-6.331-5.132-11.463-11.463-11.463H149.9c-5.328-24.221-9.201-49.43-10.131-75.654
				h195.627C334.467,389.207,330.593,414.418,325.266,438.639z M333.454,311.403c1.051,9.704,1.714,19.197,1.997,28.657H139.713
				c0.283-9.46,0.946-18.952,1.997-28.657H333.454z M237.583,171.94c-7.536,0-14.124-4.822-16.395-11.999
				c-1.021-3.227-3.415-5.838-6.542-7.133c-1.408-0.583-2.899-0.872-4.387-0.872c-1.818,0-3.631,0.432-5.283,1.29
				c-6.679,3.469-14.749,2.22-20.078-3.109c-5.329-5.328-6.578-13.396-3.109-20.077c1.56-3.003,1.713-6.543,0.417-9.67
				s-3.905-5.522-7.132-6.543c-7.177-2.271-11.999-8.859-11.999-16.395c0-7.536,4.822-14.124,11.999-16.395
				c3.227-1.021,5.838-3.415,7.133-6.542s1.143-6.666-0.417-9.67c-3.469-6.68-2.22-14.749,3.108-20.078
				c5.329-5.328,13.398-6.578,20.079-3.109c3.004,1.559,6.543,1.711,9.67,0.417c3.127-1.295,5.52-3.906,6.542-7.132
				c2.268-7.176,8.857-11.998,16.394-11.998s14.124,4.822,16.395,11.999c1.021,3.226,3.415,5.837,6.542,7.132
				c3.126,1.294,6.666,1.143,9.67-0.417c6.679-3.471,14.75-2.22,20.078,3.109c5.329,5.328,6.577,13.398,3.109,20.078
				c-1.56,3.004-1.713,6.543-0.417,9.67c1.295,3.127,3.906,5.52,7.133,6.542c7.177,2.271,11.999,8.859,11.999,16.395
				c0,7.536-4.822,14.124-11.999,16.395c-3.227,1.021-5.837,3.416-7.132,6.543c-1.295,3.127-1.143,6.666,0.417,9.67
				c3.47,6.68,2.22,14.749-3.109,20.077c-5.328,5.327-13.398,6.577-20.078,3.109c-3.004-1.56-6.542-1.714-9.67-0.417
				c-3.127,1.295-5.52,3.906-6.542,7.133C251.707,167.118,245.118,171.94,237.583,171.94z M337.979,245.269
				c-10.296,2.756-25.344-3.653-28.586-15.754c-3.243-12.1,6.583-25.177,16.88-27.936c2.26-0.605,4.641-0.877,7.097-0.877
				c12.416,0,26.66,6.948,35.996,12.743C363.147,225.056,351.666,241.602,337.979,245.269z"/>
			<path d="M227.865,461.564h19.437c6.331,0,11.463-5.132,11.463-11.463c0-6.331-5.132-11.463-11.463-11.463h-19.437
				c-6.331,0-11.463,5.132-11.463,11.463C216.402,456.432,221.534,461.564,227.865,461.564z"/>
			<path d="M277.702,97.433c0-22.122-17.998-40.119-40.119-40.119s-40.119,17.998-40.119,40.119
				c0,22.122,17.998,40.119,40.119,40.119S277.702,119.555,277.702,97.433z M237.583,114.627c-9.481,0-17.194-7.713-17.194-17.194
				s7.713-17.194,17.194-17.194s17.194,7.713,17.194,17.194S247.064,114.627,237.583,114.627z"/>
		</g>
	</g>
</g>
</svg>