<svg version="1.2" xmlns="http://www.w3.org/2000/svg" viewBox="0 0 500 500" width="500" height="500">
	<title>noun-flower-shop-856371-svg</title>
	<style>
		.s0 { fill: #000000 } 
	</style>
	<g id="Layer">
		<path id="Layer" fill-rule="evenodd" class="s0" d="m438.8 415.3v26.9h19.1v10.9h-59v-20.5h-20.5v-133.3l-1.2-0.1c-9-0.7-17.2-5.4-22.5-12.9l-1-1.4-1 1.4c-5.7 8.1-15 13-24.8 13-9.9 0-19.1-4.9-24.8-13l-1-1.4-1.1 1.4c-5.7 8.1-14.9 13-24.8 13-9.8 0-19.1-4.9-24.8-13l-1-1.4-1 1.4c-5.7 8.1-15 13-24.8 13-9.9 0-19.1-4.9-24.8-13l-1.1-1.4-1 1.4c-5.7 8.1-14.9 13-24.8 13-9.8 0-19.1-4.9-24.8-13l-1-1.4-1 1.4c-5.3 7.5-13.5 12.2-22.5 12.9l-1.2 0.1v133.3h-20.5v20.5h-54.7v-40.5h-5.4v-10.3h5.4v-29h51.4v29h5.5v10.3h-5.5v9.1h12.9v-124.1l-0.8-0.3c-11.8-4.4-19.7-15.8-19.7-28.3v-100.5h137.9l-7.5-2.4c-20.1-6.6-33.6-25.1-33.6-46.2v-48.7h5.4c3 0 6.2 0.3 10 0.8l1.5 0.2v-23.5h5.4c10.7 0 21.1 2.4 30.9 7l0.8 0.4 0.7-0.7c3.1-3.3 5.2-5.2 5.3-5.3l3.6-3.2 3.6 3.2c0.1 0.1 2.2 2 5.3 5.3l0.6 0.7 0.9-0.4c9.8-4.6 20.2-7 30.9-7h5.4v23.5l1.5-0.2c3.8-0.5 7-0.8 10-0.8h5.4v48.7c0 21.1-13.5 39.6-33.6 46.2l-7.5 2.4h135.9v100.5c0 12.5-7.9 23.9-19.7 28.3l-0.8 0.3v124.1h20.5v20.5h18.9v-26.9l-1-0.2c-13.6-2.9-23.4-15-23.4-28.9 0-11.5 6.7-21.5 16.4-26.4-5.3-3.9-8.8-10.2-8.8-17.3 0-12 9.8-21.8 21.8-21.8 12 0 21.8 9.8 21.8 21.8 0 7.1-3.5 13.4-8.8 17.3 9.8 4.9 16.5 14.9 16.5 26.4 0 13.9-9.9 26-23.4 28.9zm-382.7 26.4h33.7v-29.1h-33.7zm0-39.4h33.7v-20.1h-33.7zm191.4-258.1v13.3h18.9c20.8 0 37.7-16.9 37.7-37.7v-37.4l-1.4 0.1c-31.5 3.5-55.2 30-55.2 61.7zm20.7-79.5l1 1.3c2.7 3.7 5.3 7.6 7.7 11.8l0.6 1 1-0.5c2.7-1.3 5.3-2.4 7.9-3.2l0.8-0.3v-14.9l-1.4 0.1c-5.5 0.6-10.9 2-16.1 4.1zm-33.4 19.6l0.9 0.7c5.6 4 10.5 8.7 14.7 14l1 1.2 1-1.2c4.2-5.3 9.2-10.1 14.8-14.1l0.9-0.6-0.6-1c-5.1-9-11.1-16.1-15.1-20.5l-1-1-0.9 1c-4 4.4-10 11.5-15.2 20.5zm-19.1-9.5l0.8 0.3c2.6 0.9 5.3 1.9 7.9 3.2l1 0.5 0.6-1c2.4-4.2 5-8.1 7.7-11.8l1-1.3-1.5-0.6c-5.2-2.1-10.6-3.5-16.2-4.1l-1.3-0.1zm19.7 82.7h1.2v-13.3c0-11.7 2.8-22.9 8.2-33.4l0.3-0.6-0.4-0.6c-10.3-15.2-26.5-25.1-44.5-27.1l-1.4-0.1v37.4c0 20.5 16 37.1 36.6 37.7zm-94.7 97.2h-38.7v14.3c0 10.7 8.7 19.3 19.4 19.3 10.7 0 19.3-8.6 19.3-19.3zm52.2 0h-41.2v14.3c0 11.1 11.2 19.3 21.3 19.3 10.8 0 19.9-8.8 19.9-19.3zm52.1 0h-41.2v14.3c0 10.3 9.7 19.3 20.9 19.3 11 0 20.3-8.8 20.3-19.3zm52.2 0h-41.3v14.2c0 10.6 9.4 19.4 20.4 19.4 11.1 0 20.9-9 20.9-19.4zm52.1 0h-41.2v14.3c0 10.5 9.1 19.4 19.9 19.4 10.1 0 21.3-8.3 21.3-19.4zm-247.3-10.9h297v-64.3h-297zm277.6 44.6c10.7 0 19.4-8.7 19.4-19.4v-14.3h-38.8v14.3c0 10.7 8.7 19.4 19.4 19.4zm65.9 54.1c0-6.5-5.2-11.7-11.7-11.7-6.4 0-11.6 5.2-11.6 11.7 0 6.4 5.2 11.6 11.6 11.6 6.5 0 11.7-5.2 11.7-11.6zm7.6 43.7c0-10.6-8.6-19.3-19.3-19.3-10.7 0-19.3 8.7-19.3 19.3 0 10.7 8.6 19.4 19.3 19.4 10.7 0 19.3-8.7 19.3-19.4z"/>
		<path id="Layer" fill-rule="evenodd" class="s0" d="m361.4 339.9v105.8h-85.1v-105.8c0-18.7 15.2-34 34-34h17.1c18.7 0 34 15.3 34 34zm-9.8 0c0-13.3-10.9-24.2-24.2-24.2h-17.1c-13.3 0-24.2 10.9-24.2 24.2v96h65.5c0 0 0-96 0-96z"/>
		<path id="Layer" fill-rule="evenodd" class="s0" d="m299.6 380.9h38.5v42.1h-38.5zm9.8 32.3h18.9v-22.5h-18.9z"/>
		<path id="Layer" fill-rule="evenodd" class="s0" d="m338.1 346.6v22.9h-38.5v-22.9c0-10.6 8.6-19.2 19.2-19.2 10.7 0 19.3 8.6 19.3 19.2zm-9.8 0c0-5.2-4.2-9.4-9.5-9.4-5.2 0-9.4 4.2-9.4 9.4v13.1h18.9c0 0 0-13.1 0-13.1z"/>
		<path id="Layer" class="s0" d="m189.2 359.3l7.7 7.7 28.8-29.4-7.7-7.8z"/>
		<path id="Layer" class="s0" d="m169.1 358.7l-7.7-7.7 18.8-18.8 7.7 7.7z"/>
		<path id="Layer" fill-rule="evenodd" class="s0" d="m252.5 390.2h-113.9v-51.1c0-19.5 15.9-35.4 35.5-35.4h42.9c19.6 0 35.5 15.9 35.5 35.4zm-10.9-10.9c-0.1 0-0.1-40.1-0.1-40.1 0-13.5-11-24.5-24.5-24.5h-42.9c-13.6 0-24.6 11-24.6 24.5v40.1z"/>
		<path id="Layer" fill-rule="evenodd" class="s0" d="m244.7 415.7h8.8v36.2h-115.9v-36.2h8.8l0.2-1c2.2-11.1 12-19.2 23.3-19.2 11.3 0 21.1 8.1 23.3 19.2l0.2 1h4.3l0.2-1c2.2-11.1 12-19.2 23.3-19.2 11.3 0 21.1 8.1 23.3 19.2zm-38.6 0h30.2l-0.6-1.7c-2.2-6.1-8.1-10.2-14.5-10.2-6.4 0-12.3 4.1-14.5 10.2zm-51.3 0h30.2l-0.6-1.7c-2.2-6.1-8.1-10.2-14.5-10.2-6.4 0-12.2 4.1-14.5 10.2zm90.3 8.4h-99v19.4h99z"/>
		<path id="Layer" class="s0" d="m123.8 226.4l-7.9-7.9 7.9-7.9 7.9 7.9z"/>
		<path id="Layer" class="s0" d="m187.8 226.4l-8-7.9 8-7.9 7.9 7.9z"/>
		<path id="Layer" class="s0" d="m251.7 226.4l-7.9-7.9 7.9-7.9 7.9 7.9z"/>
		<path id="Layer" class="s0" d="m315.6 226.4l-7.9-7.9 7.9-7.9 7.9 7.9z"/>
		<path id="Layer" class="s0" d="m379.5 226.4l-7.9-7.9 7.9-7.9 8 7.9z"/>
	</g>
</svg>